# xmcd
#
# Track frame offsets:
#	150
#	14823
#	26796
#	38019
#	54417
#	69840
#	84213
#	100686
#	120084
#	130782
#	147780
#	165903
#
# Disc length: 2538 seconds
# Revision: 0
# Processed by: cddbd v1.5.2PL0 Copyright (c) Steve Scherf et al.
# Submitted via: cdrLabel 7.1
#
DISCID=8709e80c
DTITLE=Dead Rock West  Honey and Salt
DYEAR=2007
DGENRE=Alt. Country
TTITLE0=Highway One
TTITLE1=On The Outside
TTITLE2=Rocket From The Crypt
TTITLE3=Pretty Disaster
TTITLE4=Desert Rose
TTITLE5=Don't Worry About Me
TTITLE6=Boredom (How Did I Get Here)
TTITLE7=Going Home
TTITLE8=Telephone
TTITLE9=I Really Wanted You
TTITLE10=Burning House of Love
TTITLE11=All I Know
EXTD=
EXTT0=
EXTT1=
EXTT2=
EXTT3=
EXTT4=
EXTT5=
EXTT6=
EXTT7=
EXTT8=
EXTT9=
EXTT10=
EXTT11=
PLAYORDER=
